<svg xmlns="http://www.w3.org/2000/svg" viewBox="0 0 132.63 36.8"><defs><style>.cls-1{fill:#2b3990;}.cls-2{fill:none;stroke:#2d419a;stroke-linecap:round;stroke-linejoin:round;}.cls-3{fill:#6c8cc7;}.cls-4{fill:#95b6df;}.cls-5{fill:#c7dff4;}</style></defs><title>Asset 18</title><g id="Layer_2" data-name="Layer 2"><g id="Layer_1-2" data-name="Layer 1"><path class="cls-1" d="M0,14.54H2V34.77H11v1.66H0Z"/><path class="cls-1" d="M20.17,14.17c4.45,0,7,3.47,7,11.32s-2.54,11.31-7,11.31-7-3.47-7-11.31S15.67,14.17,20.17,14.17Zm0,21c3.1,0,5-2.54,5-9.65s-1.93-9.66-5-9.66-5,2.54-5,9.66S17.08,35.14,20.17,35.14Z"/><path class="cls-1" d="M36.91,26.93V25.27h7V36.43H42.4V32.81h-.06a5.1,5.1,0,0,1-4.81,4c-4.51,0-7-3.47-7-11.31s2.48-11.32,7-11.32c4.17,0,6,2.73,6.28,6.5h-2c0-2.63-1.47-4.84-4.32-4.84-3.1,0-5,2.54-5,9.66s1.93,9.65,5,9.65c2.94,0,4.56-2.6,4.56-7.75v-.46Z"/><path class="cls-1" d="M60.09,14.54V19.2H52.83v3.74h6.8v4.48h-6.8v9H47.12V14.54Z"/><path class="cls-1" d="M67.88,14.54V31.77h7v4.66H62.18V14.54Z"/><path class="cls-1" d="M76.44,20.26a9.27,9.27,0,0,1,1.31-3.53,5.37,5.37,0,0,1,2.43-2,11,11,0,0,1,7.35,0,5.37,5.37,0,0,1,2.43,2,9.43,9.43,0,0,1,1.32,3.53,29.9,29.9,0,0,1,.39,5.22,29.94,29.94,0,0,1-.39,5.23A9.43,9.43,0,0,1,90,34.24a5.1,5.1,0,0,1-2.43,1.95,11.93,11.93,0,0,1-7.35,0,5.1,5.1,0,0,1-2.43-1.95,9.27,9.27,0,0,1-1.31-3.53,28.9,28.9,0,0,1-.4-5.23A28.86,28.86,0,0,1,76.44,20.26ZM82,29.15a13.09,13.09,0,0,0,.27,2.31,2.2,2.2,0,0,0,.58,1.2,1.72,1.72,0,0,0,2,0,2.2,2.2,0,0,0,.58-1.2,12.33,12.33,0,0,0,.26-2.31c0-1,.07-2.19.07-3.67s0-2.69-.07-3.66a12.33,12.33,0,0,0-.26-2.31,2.2,2.2,0,0,0-.58-1.2,1.72,1.72,0,0,0-2,0,2.2,2.2,0,0,0-.58,1.2A13.09,13.09,0,0,0,82,21.82q-.06,1.45-.06,3.66C81.92,27,81.94,28.18,82,29.15Z"/><path class="cls-1" d="M107.19,14.54l2.24,15.15h.06L111,14.54h5.52L112.8,36.43h-6.26l-1.9-14.72h-.06l-1.9,14.72H96.43L92.69,14.54H98.2l1.72,15.15H100L102,14.54Z"/><path class="cls-1" d="M126.72,20.33a3.35,3.35,0,0,0-.4-1.67,1.33,1.33,0,0,0-1.23-.69,1.56,1.56,0,0,0-1.35.6,2.27,2.27,0,0,0-.43,1.33,2.2,2.2,0,0,0,.69,1.71,6.38,6.38,0,0,0,1.74,1.08c.69.31,1.44.62,2.23.94a10,10,0,0,1,2.24,1.24,6.1,6.1,0,0,1,1.74,2,6.64,6.64,0,0,1,.68,3.23c0,2.33-.66,4-2,5.08a9.13,9.13,0,0,1-5.76,1.58,15.33,15.33,0,0,1-3.14-.29,5.71,5.71,0,0,1-2.3-1A4.5,4.5,0,0,1,118,33.58a7.41,7.41,0,0,1-.49-2.88v-.77H123v.52a2.92,2.92,0,0,0,.52,2,1.75,1.75,0,0,0,1.35.57,1.61,1.61,0,0,0,1.36-.62,2.36,2.36,0,0,0,.48-1.5,2.24,2.24,0,0,0-.66-1.7,5.59,5.59,0,0,0-1.66-1.07c-.66-.3-1.38-.6-2.16-.91A9.28,9.28,0,0,1,120.11,26a5.82,5.82,0,0,1-1.65-1.94A6.42,6.42,0,0,1,117.8,21a6.83,6.83,0,0,1,1.77-5.09q1.79-1.75,5.4-1.75c2.49,0,4.3.54,5.41,1.61s1.67,2.78,1.67,5.14h-5.33Z"/></g><g id="Layer_7" data-name="Layer 7"><polyline class="cls-2" points="102.72 9.79 112.57 6.79 121.7 8.49 127.77 3.2"/><circle class="cls-3" cx="102.72" cy="9.79" r="2.79"/><circle class="cls-4" cx="112.72" cy="6.79" r="2.79"/><circle class="cls-5" cx="127.72" cy="2.79" r="2.79"/></g></g></svg>