<svg xmlns="http://www.w3.org/2000/svg" width="605.245" height="420.161" viewBox="0 0 605.245 420.161"><defs><style>.a{fill:#ff6584;}.b{fill:#f2f2f2;}.c{fill:#3f3d56;}.d{fill:#2f2e41;}.e{fill:#fff;}.f{fill:#2a3d92;}</style></defs><g transform="translate(0 0)"><circle class="a" cx="34.567" cy="34.567" r="34.567" transform="translate(80.256 21.064)"/><path class="b" d="M379.25,246.366c0,81.563-48.488,110.042-108.3,110.042s-108.3-28.479-108.3-110.042S270.95,61.042,270.95,61.042,379.25,164.8,379.25,246.366Z" transform="translate(-96.245 -61.042)"/><path class="c" d="M279.093,282.889l1.109-68.261,46.16-84.449-45.986,73.74.5-30.693,31.814-61.1-31.682,52.975h0l.9-55.2L315.97,61.261l-33.925,39.961L282.6,0l-3.522,134,.289-5.528L244.737,75.456l34.08,63.627-3.227,61.652-.1-1.636-39.929-55.791,39.808,61.572-.4,7.71-.072.116.033.633-8.188,156.416h10.939l1.312-80.792,39.71-61.421Z" transform="translate(-108.334 0)"/><path class="b" d="M1009.332,336.849c0,66.763-39.69,90.074-88.649,90.074s-88.649-23.311-88.649-90.074,88.649-151.7,88.649-151.7S1009.332,270.085,1009.332,336.849Z" transform="translate(-404.087 -118.119)"/><path class="c" d="M920.144,355.668l.907-55.875,37.785-69.125-37.642,60.36L921.6,265.9l26.041-50.012L921.71,259.256h0l.734-45.186,27.885-39.815-27.77,32.71.459-82.855-2.883,109.685.237-4.525-28.352-43.4,27.9,52.082-2.642,50.465-.079-1.34-32.684-45.668,32.585,50.4-.331,6.311-.059.1.027.518-6.7,128.033h8.954l1.074-66.132,32.505-50.276Z" transform="translate(-406.778 -57.077)"/><ellipse class="c" cx="299.542" cy="15.142" rx="299.542" ry="15.142" transform="translate(0 352.393)"/><ellipse class="c" cx="51.304" cy="2.593" rx="51.304" ry="2.593" transform="translate(430.715 389.958)"/><ellipse class="c" cx="51.304" cy="2.593" rx="51.304" ry="2.593" transform="translate(245.065 414.974)"/><ellipse class="c" cx="117.212" cy="5.925" rx="117.212" ry="5.925" transform="translate(38.31 390.667)"/><circle class="d" cx="42.669" cy="42.669" r="42.669" transform="translate(9.767 263.18)"/><rect class="d" width="12.963" height="23.225" transform="translate(32.6 339.104) rotate(0.675)"/><rect class="d" width="12.963" height="23.225" transform="translate(58.523 339.409) rotate(0.675)"/><ellipse class="d" cx="4.051" cy="10.802" rx="4.051" ry="10.802" transform="translate(32.274 366.647) rotate(-89.325)"/><ellipse class="d" cx="4.051" cy="10.802" rx="4.051" ry="10.802" transform="translate(58.204 366.413) rotate(-89.325)"/><circle class="e" cx="14.583" cy="14.583" r="14.583" transform="translate(39.06 280.477)"/><circle class="c" cx="4.861" cy="4.861" r="4.861" transform="translate(48.782 290.199)"/><path class="f" d="M60.545,522.9c-3.263-15.469,7.933-30.929,25.007-34.531s33.562,6.018,36.825,21.488-8.09,21.027-25.164,24.628S63.808,538.37,60.545,522.9Z" transform="translate(-49.028 -257.217)"/><path class="f" d="M190.033,613.833c0,29.747-17.683,40.134-39.5,40.134q-.758,0-1.514-.017c-1.011-.022-2.012-.07-3-.137-19.688-1.393-34.984-12.314-34.984-39.98,0-28.63,36.586-64.757,39.335-67.431l0,0,.159-.154S190.033,584.086,190.033,613.833Z" transform="translate(-72.509 -284.181)"/><path class="c" d="M167.984,649.416,182.43,629.23l-14.482,22.4-.038,2.317c-1.011-.022-2.012-.07-3-.137l1.557-29.762-.012-.231.026-.043.147-2.811-14.519-22.458,14.564,20.35.034.6,1.177-22.487-12.43-23.206,12.581,19.259,1.225-46.619,0-.159v.154l-.2,36.762,12.374-14.574-12.425,17.741-.327,20.133,11.554-19.322-11.6,22.284-.183,11.193,16.773-26.893-16.836,30.8Z" transform="translate(-91.397 -284.181)"/><circle class="d" cx="42.669" cy="42.669" r="42.669" transform="translate(342.152 262.718)"/><rect class="d" width="12.963" height="23.225" transform="matrix(0.956, -0.294, 0.294, 0.956, 376.072, 343.111)"/><rect class="d" width="12.963" height="23.225" transform="matrix(0.956, -0.294, 0.294, 0.956, 400.853, 335.495)"/><ellipse class="d" cx="10.802" cy="4.051" rx="10.802" ry="4.051" transform="matrix(0.956, -0.294, 0.294, 0.956, 381.784, 361.697)"/><ellipse class="d" cx="10.802" cy="4.051" rx="10.802" ry="4.051" transform="matrix(0.956, -0.294, 0.294, 0.956, 406.406, 353.565)"/><circle class="e" cx="14.583" cy="14.583" r="14.583" transform="translate(368.098 280.161)"/><circle class="c" cx="4.861" cy="4.861" r="4.861" transform="translate(377.82 289.883)"/><path class="f" d="M654.42,540.4c-7.826-13.737-1.879-31.875,13.284-40.513s33.8-4.5,41.624,9.232-1.291,22.492-16.453,31.13S662.246,554.142,654.42,540.4Z" transform="translate(-320.819 -260.789)"/><path class="f" d="M549.552,608.47c0,27.306-16.232,36.841-36.258,36.841q-.7,0-1.39-.015c-.928-.02-1.847-.064-2.755-.126-18.073-1.279-32.113-11.3-32.113-36.7,0-26.281,33.585-59.444,36.107-61.9l0,0,.146-.141S549.552,581.163,549.552,608.47Z" transform="translate(-240.828 -284.264)"/><path class="c" d="M529.312,641.133l13.261-18.53-13.294,20.564-.035,2.127c-.928-.02-1.847-.064-2.755-.126l1.429-27.32-.011-.212.024-.04.135-2.58L514.738,594.4l13.369,18.68.031.548,1.08-20.642-11.41-21.3,11.549,17.679,1.124-42.794,0-.146v.141l-.188,33.746,11.359-13.378L530.253,583.22l-.3,18.481,10.606-17.737-10.65,20.456L529.74,614.7l15.4-24.686L529.683,618.28Z" transform="translate(-258.167 -284.264)"/><path class="f" d="M808.033,624.833c0,29.747-17.683,40.134-39.5,40.134q-.758,0-1.514-.017c-1.011-.022-2.012-.07-3-.137-19.688-1.393-34.984-12.314-34.984-39.98,0-28.63,36.586-64.757,39.335-67.431l0,0,.159-.154S808.033,595.086,808.033,624.833Z" transform="translate(-356.72 -289.24)"/><path class="c" d="M785.984,660.416,800.43,640.23l-14.482,22.4-.038,2.318c-1.011-.022-2.012-.07-3-.137l1.557-29.761-.012-.231.026-.043.147-2.811-14.519-22.458,14.564,20.35.034.6,1.177-22.487-12.43-23.206,12.581,19.259,1.225-46.619,0-.159v.154l-.2,36.762,12.374-14.574-12.425,17.741-.327,20.133,11.554-19.322-11.6,22.284-.183,11.193,16.774-26.893-16.836,30.8Z" transform="translate(-375.608 -289.24)"/><ellipse class="d" cx="6.698" cy="21.334" rx="6.698" ry="21.334" transform="translate(346.11 318.696) rotate(-64.626)"/><ellipse class="d" cx="6.698" cy="21.334" rx="6.698" ry="21.334" transform="translate(17.034 317.365) rotate(-68.159)"/></g></svg>