<svg xmlns="http://www.w3.org/2000/svg" xmlns:xlink="http://www.w3.org/1999/xlink" width="629.458" height="450.358" viewBox="0 0 629.458 450.358"><defs><style>.a,.f,.i{fill:#2a3d92;}.a,.g,.h,.n,.o{opacity:0.1;}.b{fill:url(#a);}.c,.d{fill:#fff;}.d{opacity:0.04;}.e,.g{fill:#5a5773;}.f{opacity:0.2;}.j{fill:url(#b);}.k{fill:#c37098;}.l{fill:#3f3d56;}.m,.r{fill:none;}.n{stroke:#2a3d92;}.n,.r{stroke-miterlimit:10;}.p{fill:#535461;}.q{fill:#9d9cb5;}.r{stroke:#535461;stroke-width:2px;}</style><linearGradient id="a" x1="0.5" y1="1" x2="0.5" gradientUnits="objectBoundingBox"><stop offset="0" stop-color="gray" stop-opacity="0.251"/><stop offset="0.54" stop-color="gray" stop-opacity="0.122"/><stop offset="1" stop-color="gray" stop-opacity="0.102"/></linearGradient><linearGradient id="b" x1="0.5" y1="1" x2="0.5" xlink:href="#a"/></defs><g transform="translate(0.018 -0.003)"><path class="a" d="M679.246,342.815c-14.594,30.106-44.228,50.237-74.938,63.513C562.963,424.207,517.433,431.3,472.53,428.3q-11.8-.785-23.537-2.51a296.853,296.853,0,0,1-78.7-22.916q-10.843-4.883-21.246-10.662a271.8,271.8,0,0,1-33.209-21.718q-3.971-3.032-7.833-6.218c-1.785-1.472-3.554-2.977-5.35-4.438a67.512,67.512,0,0,0-12.04-8.2,43,43,0,0,0-4.032-1.78c-13.776-5.24-29.661-3.263-44,.824-10.909,3.109-21.543,7.366-32.44,10.4a107.657,107.657,0,0,1-14.781,3.142,78.662,78.662,0,0,1-33.209-2.917l-.917-.286q-2.307-.725-4.576-1.587l-.917-.352q-2.2-.846-4.3-1.818l-.917-.417q-2.2-1.022-4.3-2.159c-.505-.264-1.005-.549-1.5-.818a89.9,89.9,0,0,1-21.51-16.748c-.181-.181-.352-.368-.549-.549-.873-.945-1.73-1.906-2.56-2.889-.308-.363-.615-.725-.917-1.1q-1.478-1.8-2.851-3.686c-.137-.181-.269-.368-.4-.549a79.42,79.42,0,0,1-9.261-16.747c-.077-.181-.148-.368-.214-.549q-1.1-2.829-2-5.751c-.247-.813-.483-1.648-.692-2.461-.071-.242-.137-.489-.2-.731-3.032-11.936-3.378-24.344-3.378-36.681v-4.312c.088-19.955.4-40.251,3.34-59.932a2.5,2.5,0,0,1,.06-.406,187.17,187.17,0,0,1,4.015-19.675,145.144,145.144,0,0,1,6.762-19.939c6.773-15.929,16.621-30.425,27.557-43.86C169.471,83.5,205.6,55.119,247.88,44.5c45.563-11.441,96.2-.478,132.953,28.782,11.205,8.92,21.274,19.483,33.858,26.321,10.986,5.954,23.844,8.42,35.61,3.735,9.722-3.872,16.05-5.795,26.97-5.207a226.061,226.061,0,0,1,66.111,13.847c.857.313,1.714.637,2.565.961C601.264,134.1,648.815,176.147,673.533,230.18q.983,2.142,1.906,4.317C690.176,268.921,695.5,309.265,679.246,342.815Z" transform="translate(-59.773 -40.04)"/><ellipse class="a" cx="48.49" cy="7.789" rx="48.49" ry="7.789" transform="translate(17.786 392.533)"/><ellipse class="a" cx="85.979" cy="8.349" rx="85.979" ry="8.349" transform="translate(415.305 433.663)"/><rect class="b" width="521.996" height="295.693" rx="12.49" transform="translate(63.992 59.186)"/><rect class="c" width="520.398" height="290.552" rx="12.49" transform="translate(64.821 63.344)"/><rect class="c" width="520.398" height="290.552" rx="12.49" transform="translate(64.821 63.344)"/><rect class="d" width="520.398" height="290.552" rx="12.49" transform="translate(64.821 63.344)"/><path class="e" d="M662.376,149.29H147.262a2.642,2.642,0,0,0-2.642,2.642V163.1H665V151.932a2.642,2.642,0,0,0-2.62-2.642Z" transform="translate(-79.799 -89.28)"/><g transform="translate(71.643 63.344)"><circle class="c" cx="3.57" cy="3.57" r="3.57"/><circle class="c" cx="3.57" cy="3.57" r="3.57" transform="translate(9.612)"/><circle class="c" cx="3.57" cy="3.57" r="3.57" transform="translate(19.225)"/></g><rect class="f" width="139.654" height="11.853" transform="translate(107.681 99.789)"/><rect class="g" width="434.677" height="182.339" transform="translate(107.681 147.318)"/><path class="h" d="M614.854,293.308h-7.443V278.851a29.725,29.725,0,1,0-59.448-.4v14.858h-7.426a12.425,12.425,0,0,0-12.386,12.386v59.443a12.425,12.425,0,0,0,12.386,12.386h74.317a12.419,12.419,0,0,0,12.381-12.386V305.694a12.419,12.419,0,0,0-12.381-12.386ZM582.034,331.95v21.29a4.444,4.444,0,0,1-4.12,4.46,4.345,4.345,0,0,1-4.548-4.339V331.939a9.887,9.887,0,1,1,8.668,0Zm16.72-38.642H556.63V278.45a21.054,21.054,0,0,1,42.108,0Z" transform="translate(-252.664 -134.098)"/><path class="i" d="M614.854,291.308h-7.443V276.851a29.725,29.725,0,1,0-59.448-.4v14.858h-7.426a12.425,12.425,0,0,0-12.386,12.386v59.443a12.425,12.425,0,0,0,12.386,12.386h74.317a12.419,12.419,0,0,0,12.381-12.386V303.694a12.419,12.419,0,0,0-12.381-12.386ZM582.034,329.95v21.29a4.444,4.444,0,0,1-4.12,4.46,4.345,4.345,0,0,1-4.548-4.339V329.939a9.887,9.887,0,1,1,8.668,0Zm16.72-38.642H556.63V276.45a21.054,21.054,0,0,1,42.108,0Z" transform="translate(-252.664 -133.197)"/><rect class="g" width="43.997" height="10.387" transform="translate(498.362 129.769)"/><path class="j" d="M953.859,596.9a15.639,15.639,0,0,0-1.472-4.18l-6.591-9.843h.038s-1.038-4.943,0-7.371-3.7-8.4-3.7-8.4a3.542,3.542,0,0,1,.928-3.345c1.505-1.846-.928-7.25-.928-7.25s-1.154-11.288-1.269-13.012-1.044-11.282-1.044-11.282l-2.2-20.263-3.911-53.7-.071-1.005c.483-.236.742-.385.742-.385l-.78-29.694.676-.61c5.9-5.339,19.5-17.7,19.368-17.967s-1.648-20.636-1.824-25.734a30.667,30.667,0,0,0-2.34-10.535c-.341-.676-1.324-5.13-1.73-7.014-.11-.516-.181-.84-.181-.84s-3.988-7.6-3.642-11.057,1.038-6.042-7.465-7.251c0,0-7.141-1.066-11.392-3.971a32.407,32.407,0,0,0-8.162-4.087s-2.384-4.394-4.043-2.906a23.075,23.075,0,0,1-1.565-4.894l-.049-.308a16.187,16.187,0,0,0,6.394-9.151c.055-.209.1-.423.148-.632a1.785,1.785,0,0,0,.511.093c1.445,0,2.334-1.609,3.686-2.12.549-.214,1.225-.247,1.648-.681a1.61,1.61,0,0,0,.362-1.214,2.479,2.479,0,0,0,0-.45c0-.053,0-.106,0-.159v.055c-.368-2-1.917-3.774-1.747-5.806.165-1.911,1.846-3.592,1.708-5.454a2.961,2.961,0,0,0-.038-.439v.066a4.7,4.7,0,0,0-1.1-1.944,6.24,6.24,0,0,0-2.263-1.9c-.764-.335-1.648-.412-2.362-.813-2.1-1.142-2.093-4.12-3.34-6.152a5.443,5.443,0,0,0-5.092-2.521c-1.56.154-2.972.983-4.515,1.252a11.805,11.805,0,0,1-6.256-1.1,17.223,17.223,0,0,0-6.174-1.648c-2.148,0-4.471,1.1-5.119,3.125-.346,1.1-.176,2.279-.439,3.395-.472,1.966-2.2,3.373-3.982,4.35-1.1.61-2.406,1.307-2.746,2.461v-.088a2.1,2.1,0,0,0-.055.28,2.059,2.059,0,0,0,0,.368,6.924,6.924,0,0,0,.7,2.3,6.333,6.333,0,0,1-.033,4.427c-.406,1.044-1.1,1.961-1.494,3a5.908,5.908,0,0,0-.363,1.505v-.088a6.045,6.045,0,0,0,0,.7,4.944,4.944,0,0,0,.549,2.307,4.142,4.142,0,0,0,2.466,2.071c1.1.253,1.785-.824,2.944-.549a4.626,4.626,0,0,1,.61.192c.038.247.077.494.121.736a16.144,16.144,0,0,0,5.57,9.431,3.545,3.545,0,0,0,.06.4h0a36.884,36.884,0,0,1,.456,6.624s-1.73-2.532-4.1,2.356c0,0-6.19,3.57-8.327,3.977s-9.722,3.049-9.722,3.049a6.69,6.69,0,0,1-3.933,1.269c-2.367,0-4.334,5.18-4.048,8s-.17,4.894-2.373,5.009-1,4.581-.983,4.658l-.2.961c-.428,1.966-1.362,6.185-1.692,6.844a30.76,30.76,0,0,0-2.345,10.535c-.17,5.1-1.648,25.388-1.818,25.734-.115.225,9.206,8.745,15.759,14.7l.95.857-3.016,28.167a7.52,7.52,0,0,0,3.1,5.493c0,.33,0,.665-.033,1.011-.132,3.3-.4,7.283-.923,8.327-.923,1.846-.692,11.744-.692,11.744s-.928,20.148-2.082,22.339a15.24,15.24,0,0,0-1.044,7.69c.346.9-1.159,25.1-1.159,25.1l-1.153,10.826s.346,10.359-.7,10.59-1.62,7.371-1.62,7.371-3.7,5.064-2.082,6.9-.236,2.653-.406,3.109-3.526,2.2-1.1,8.635a1.906,1.906,0,0,0,.077.187c-2.274,3.158-9.481,13.347-9.041,14.9a4.081,4.081,0,0,0,1.922,2.307c1.7,1.016,4.608,1.489,9.239,0,7.69-2.477,7.141-4.262,7.141-4.262a3.263,3.263,0,0,1,3.241-3.109c3.18-.231,5.553-3.164,5.553-3.164l-.374-1.39-.511-1.922c.06-.549.45-1.51,2.2-2.043,2.664-.807,1.966-5.872,1.966-5.872s-.231-5.3.923-5.987.7-9.442.7-9.442a64.887,64.887,0,0,1,3.12-10.6c1.846-4.262,4.054-29.584,4.054-29.584s1.5-12.436,2.889-16.006,2.664-13.584,2.664-13.584,8.563-16.583,8.673-20.268c0,0,1.1-3.455,2.2.346s4.186,12.9,4.186,12.9l3,11.167,3.587,16.693,2.318,14.051s-.352,5.3.549,7.141,2.2,6.1,1.505,6.9,1.384,4.608,1.966,5.41,0,17.846,0,17.846,2.658,14.506,6.476,17.028a4.673,4.673,0,0,0,.846.439c-.055,1.571-.11,3.675-.038,4.773a1.831,1.831,0,0,0,.121.72c.346.461,4.279,3.57,5.092,3.57s3.7,2.016,3.818,2.994,8.453,5.119,9.634,5.24,6.9,1.148,7.69-.461A2.664,2.664,0,0,0,953.859,596.9ZM933.388,389.43l.593.511s.61,4.751,1.044,6.174a11.923,11.923,0,0,1-.088,4.191,9.641,9.641,0,0,0,.61,3.021c.516,1.038-1.044,3.3-1.044,3.3h-1.39l-.434-17.786Zm-41.322-53.1v-.1a.345.345,0,0,0-.016.1Zm-21.339,68.468a2,2,0,0,1-.088-1.467,4.4,4.4,0,0,0,.291-.813,12.584,12.584,0,0,0,.319-2.2.159.159,0,0,0,0-.027,11.618,11.618,0,0,1-.082-4.164c.412-1.351,1.038-6.174,1.038-6.174l.4-.335.917-.8a6.521,6.521,0,0,1,.066-.785c.192,4.174.346,8.788.1,9.019-.461.456-2.142,4.943-1.736,5.119a21.011,21.011,0,0,1-.357,4.273A8.751,8.751,0,0,1,870.726,404.793Z" transform="translate(-396.527 -152.376)"/><path class="k" d="M949.966,368.456v6.833l-14.018,7.047s-13.919-8.42-10.486-11.771c2.2-2.12,1.774-7.943,1.181-11.947h0c-.346-2.329-.747-4.037-.747-4.037s25-7.141,21.224-1.719a8.527,8.527,0,0,0-.939,6.481A29.439,29.439,0,0,0,949.966,368.456Z" transform="translate(-431.496 -180.118)"/><path class="l" d="M881.215,469.157l-1.807,22.257s-2.708-2.455-6.212-5.652c-6.5-5.927-15.726-14.4-15.616-14.627.17-.346,1.648-20.538,1.807-25.613a30.647,30.647,0,0,1,2.318-10.48,65.168,65.168,0,0,0,1.648-6.817c.132-.61.214-1.005.214-1.005L866.6,426s12.633,14.094,12.633,14.353-.862,11.084-.862,11.084l-.9.78-.39.335s-.6,4.729-1.033,6.146a11.035,11.035,0,0,0,.082,4.142h0a12.777,12.777,0,0,1-.313,2.2,4.6,4.6,0,0,1-.291.807,2.015,2.015,0,0,0,.088,1.461,8.829,8.829,0,0,0,.945,1.807Z" transform="translate(-401.144 -213.999)"/><path class="l" d="M1020.619,471.148c.132.269-13.342,12.567-19.181,17.879l-2.648,2.4L997,469.17h4.641s1.549-2.236,1.033-3.268a9.55,9.55,0,0,1-.6-3,11.973,11.973,0,0,0,.082-4.169c-.428-1.423-1.033-6.146-1.033-6.146l-.588-.505-.7-.61s-.862-10.826-.862-11.084,12.633-14.353,12.633-14.353l3.01,1.2s.066.324.176.84c.406,1.873,1.379,6.306,1.714,6.981a30.65,30.65,0,0,1,2.318,10.48C1018.971,450.61,1020.443,470.8,1020.619,471.148Z" transform="translate(-463.984 -214.012)"/><path class="l" d="M1018.631,836.736c-.807,1.6-6.476.549-7.646.461s-9.431-4.246-9.547-5.218S998.461,829,997.659,829s-4.7-3.1-5.042-3.554a1.751,1.751,0,0,1-.115-.714c-.121-1.884.115-6.734.115-6.734l16.616.917,8.074,12.145a15.667,15.667,0,0,1,1.461,4.158A2.746,2.746,0,0,1,1018.631,836.736Z" transform="translate(-461.941 -390.681)"/><path class="h" d="M1018.631,836.736c-.807,1.6-6.476.549-7.646.461s-9.431-4.246-9.547-5.218S998.461,829,997.659,829s-4.7-3.1-5.042-3.554a1.751,1.751,0,0,1-.115-.714c-.121-1.884.115-6.734.115-6.734l16.616.917,8.074,12.145a15.667,15.667,0,0,1,1.461,4.158A2.746,2.746,0,0,1,1018.631,836.736Z" transform="translate(-461.941 -390.681)"/><path class="h" d="M1018.658,842.262c-.807,1.6-6.476.549-7.646.461s-9.431-4.246-9.547-5.218-2.977-2.977-3.779-2.977-4.7-3.1-5.042-3.554a1.751,1.751,0,0,1-.115-.714l5.383,3.406s3.438,2.2,4.356,3.5,8.146,4.01,8.745,4.065c.445.044,5.191-.868,7.783-.483a2.746,2.746,0,0,1-.137,1.516Z" transform="translate(-461.968 -396.207)"/><path class="l" d="M875.089,827.2s-2.351,2.922-5.493,3.147a3.235,3.235,0,0,0-3.208,3.092s.549,1.78-7.047,4.246c-4.586,1.478-7.47,1.011-9.151,0a4.087,4.087,0,0,1-1.906-2.3c-.516-1.829,9.623-15.753,9.623-15.753l9.228-.549,6.591,2.977,1.011,3.774Z" transform="translate(-396.947 -391.173)"/><path class="h" d="M875.089,827.2s-2.351,2.922-5.493,3.147a3.235,3.235,0,0,0-3.208,3.092s.549,1.78-7.047,4.246c-4.586,1.478-7.47,1.011-9.151,0a4.087,4.087,0,0,1-1.906-2.3c-.516-1.829,9.623-15.753,9.623-15.753l9.228-.549,6.591,2.977,1.011,3.774Z" transform="translate(-396.947 -391.173)"/><path class="m" d="M876.669,832.724s-2.351,2.922-5.493,3.147a3.235,3.235,0,0,0-3.208,3.092s.549,1.78-7.047,4.246c-4.586,1.478-7.47,1.011-9.151,0,4.323-.45,13.875-3.18,14.831-4.125,1.148-1.148,2.582-4.3,3.554-4.356.676-.044,4.109-2.109,6.168-3.389Z" transform="translate(-398.526 -396.694)"/><path class="h" d="M876.669,832.724s-2.351,2.922-5.493,3.147a3.235,3.235,0,0,0-3.208,3.092s.549,1.78-7.047,4.246c-4.586,1.478-7.47,1.011-9.151,0,4.323-.45,13.875-3.18,14.831-4.125,1.148-1.148,2.582-4.3,3.554-4.356.676-.044,4.109-2.109,6.168-3.389Z" transform="translate(-398.526 -396.694)"/><path class="l" d="M952.386,703.306c-1.033,2.406,0,7.333,0,7.333s-15.38.8-19.137-1.719-6.416-16.962-6.416-16.962.549-16.956,0-17.758-2.636-4.581-1.95-5.383-.549-5.042-1.489-6.877-.549-7.1-.549-7.1l-2.3-13.985L917,624.243l-3.016-11.117s-3.093-9.052-4.142-12.831-2.159-.346-2.159-.346c-.11,3.669-8.591,20.17-8.591,20.17s-1.263,9.969-2.637,13.518-2.867,15.929-2.867,15.929-2.2,25.206-4.01,29.447a64.964,64.964,0,0,0-3.06,10.541s.461,8.712-.687,9.4-.961,5.96-.961,5.96.687,5.037-1.95,5.844-2.2,2.521-2.2,2.521-14.666,2.406-17.072-4.015.917-8.129,1.1-8.591,2.01-1.258.406-3.1,2.06-6.871,2.06-6.871.577-7.1,1.6-7.333.692-10.541.692-10.541l1.143-10.771s1.494-24.064,1.148-24.981a15.261,15.261,0,0,1,1.033-7.69c1.148-2.2,2.06-22.235,2.06-22.235s-.231-9.849.687-11.683c.549-1.038.78-5.031.912-8.289.1-2.488.121-4.548.121-4.548l12.831-4.812,16.478-5.268,13.864,6.646,20.285,3.894.253,3.5,3.872,53.45,2.2,20.164s.917,9.508,1.033,11.227,1.258,12.952,1.258,12.952,2.406,5.383.917,7.218a3.479,3.479,0,0,0-.917,3.3S953.419,700.9,952.386,703.306Z" transform="translate(-403.491 -280.052)"/><path class="h" d="M947.944,352.863a8.526,8.526,0,0,0-.939,6.482,16.116,16.116,0,0,1-19.538-.731h0c-.346-2.329-.747-4.037-.747-4.037S951.723,347.448,947.944,352.863Z" transform="translate(-432.308 -180.119)"/><path class="k" d="M949.588,328.564a16.017,16.017,0,1,1-4.691-11.4A16.094,16.094,0,0,1,949.588,328.564Z" transform="translate(-428.107 -162.828)"/><path class="h" d="M922.642,350.181l-5.273,93.9-28.645-6.015-5.674-37.642,5.619-50.534,4.229.544,7.459.95,7.388.456,8.008-.89Z" transform="translate(-397.811 -157.701)"/><path class="i" d="M922.642,351.436l-5.273,93.9-28.645-6.015-5.674-37.642,5.619-50.528,4.229.538,7.459.95,7.388.456,8.008-.89Z" transform="translate(-397.811 -158.269)"/><path class="l" d="M939.23,396.3l10.315.346-2.9,4.059s.2,8.2,1.582,10.552.972,38.669.972,38.669l-2.746,5.213-4.7-5.844.06-47.952Z" transform="translate(-437.946 -200.612)"/><path class="h" d="M939.23,396.3l10.315.346-2.9,4.059s.2,8.2,1.582,10.552.972,38.669.972,38.669l-2.746,5.213-4.7-5.844.06-47.952Z" transform="translate(-437.946 -200.612)"/><path class="h" d="M933.773,336.86l-9.623,10.656,5.5,5.729,9.113-8.882Z" transform="translate(-416.335 -151.828)"/><path class="i" d="M933.773,335.61l-9.623,10.656,5.5,5.729,9.113-8.882Z" transform="translate(-416.335 -151.265)"/><path class="h" d="M908,347.329l-9.744-9.739-.917,5.1,4.471,11.172Z" transform="translate(-404.252 -152.157)"/><path class="i" d="M908.626,346.079l-9.739-9.739-.917,5.1,4.471,11.172Z" transform="translate(-404.536 -151.594)"/><path class="h" d="M951.636,586.62a47.549,47.549,0,0,1-14.83,4.29c-9.453,1.2-15.638-10.826-15.638-10.826l-3.609,4.7c-1.148,4.987-18.621,6.245-25.723,4.356a11.367,11.367,0,0,1-4.076-1.928c.1-2.488.121-4.548.121-4.548l12.831-4.812,16.478-5.268,13.864,6.646,20.285,3.894Z" transform="translate(-414.748 -280.065)"/><path class="h" d="M949.6,391.481l-5.268,93.894-28.65-6.015L910,441.724l5.614-50.534,4.229.549a51.343,51.343,0,0,1-.621,5.493c-.687,3.213,3.554,26.014,3.554,26.014s8.058,25.569,11.683,21.883,8.788-23.147,8.788-23.147c3.5-7.218.06-27.464-.2-27.87a8.18,8.18,0,0,1-.329-1.84Z" transform="translate(-424.772 -198.309)"/><path class="h" d="M1001.191,515.242l.242,9.2-2.648,2.4L997,504.57h3.955Z" transform="translate(-463.984 -249.412)"/><path class="h" d="M891.028,493.1h0a12.772,12.772,0,0,1-.313,2.2c0-.2,0-.319-.044-.335C890.507,494.918,890.7,494.078,891.028,493.1Z" transform="translate(-416.033 -244.242)"/><path class="h" d="M894.029,503.087l-1.807,22.257s-2.708-2.455-6.212-5.652l.417-3.944s1.478-9.689,2.016-14.468a8.829,8.829,0,0,0,.945,1.807Z" transform="translate(-413.959 -247.929)"/><path class="l" d="M901.429,375.94s-1.714-2.521-4.065,2.345c0,0-6.13,3.554-8.239,3.955s-9.612,3.038-9.612,3.038a6.636,6.636,0,0,1-3.894,1.258c-2.351,0-4.3,5.158-4.015,7.965s-.17,4.872-2.345,4.987-.978,4.636-.978,4.636l14.5,16.616s.917,15.3.461,15.759-2.12,4.944-1.719,5.1-2.2,17.072-2.2,17.072l-3.493,32.83s0,5.493,7.108,7.388,24.591.643,25.717-4.345l3.609-4.7s6.185,12.035,15.638,10.832a45.461,45.461,0,0,0,15.473-4.641l-1.033-39.345-.687-28.359,14.759-24.251s-3.955-7.564-3.609-10.986,1.027-6.015-7.393-7.218c0,0-7.1-1.06-11.288-3.955a32.265,32.265,0,0,0-8.074-4.065s-2.362-4.394-4-2.889c0,0,1.648,6.212,1.51,7.141a23.633,23.633,0,0,0,.516,5.559c.258.434,3.7,20.653.2,27.87,0,0-5.136,19.461-8.789,23.147S903.8,416.8,903.8,416.8s-4.24-22.806-3.554-26.014S901.429,375.94,901.429,375.94Z" transform="translate(-405.82 -190.854)"/><circle class="l" cx="2.521" cy="2.521" r="2.521" transform="translate(505.348 255.158)"/><circle class="l" cx="2.521" cy="2.521" r="2.521" transform="translate(505.348 267.044)"/><circle class="h" cx="2.521" cy="2.521" r="2.521" transform="translate(505.348 255.158)"/><circle class="h" cx="2.521" cy="2.521" r="2.521" transform="translate(505.348 267.044)"/><path class="n" d="M992.47,804.34s10.348.8,11.376,1.6S992.47,804.34,992.47,804.34Z" transform="translate(-461.943 -384.525)"/><path class="n" d="M880.3,789.53s2.2,2.746,1.263,4.01S880.3,789.53,880.3,789.53Z" transform="translate(-411.385 -377.849)"/><path class="n" d="M885.1,806.341s4.01-2.637,5.614-.884S885.1,806.341,885.1,806.341Z" transform="translate(-413.549 -384.757)"/><path class="h" d="M949.6,328.568a16.01,16.01,0,0,1-.516,4.07,1.829,1.829,0,0,1-1.066-1.791c.071-.654.505-1.252.412-1.9-.137-1-1.346-1.406-1.983-2.2-.785-.956-.615-2.345-.549-3.581s-.247-2.746-1.406-3.169c-.346-.126-.725-.137-1.06-.28-.912-.384-1.192-1.516-1.8-2.3-1.219-1.571-3.642-1.538-5.493-.791a26.11,26.11,0,0,1-2.472,1.033,3.229,3.229,0,0,1-2.587-.192c-.363-.231-.654-.549-1.027-.78-1.241-.747-2.867,0-3.944.961s-1.939,2.252-3.3,2.84c-.61.275-1.362.439-1.648,1.033a2.165,2.165,0,0,0-.176,1.027,30.715,30.715,0,0,1-.192,6.4c-.286,1.346-1.23,2.873-2.6,2.708a2.567,2.567,0,0,1-.5-.126,16.094,16.094,0,1,1,31.913-2.977Z" transform="translate(-428.116 -162.833)"/><path class="l" d="M911.709,321.4c.412.093.8.308,1.225.363,1.368.165,2.313-1.362,2.6-2.708a29.623,29.623,0,0,0,.2-6.4,2.093,2.093,0,0,1,.17-1.027c.313-.593,1.066-.758,1.648-1.033,1.329-.593,2.2-1.857,3.3-2.84s2.7-1.708,3.938-.961c.368.22.665.549,1.027.78a3.3,3.3,0,0,0,2.593.192c.851-.253,1.648-.7,2.466-1.033,1.835-.747,4.262-.774,5.493.785.61.785.89,1.911,1.8,2.3.335.143.714.159,1.06.286,1.159.434,1.456,1.933,1.406,3.169s-.214,2.626.549,3.581c.637.78,1.846,1.186,1.983,2.2.088.648-.341,1.252-.412,1.9a1.824,1.824,0,0,0,1.719,1.944c1.428,0,2.312-1.6,3.647-2.109a4.335,4.335,0,0,0,1.648-.681,1.818,1.818,0,0,0,.341-1.489c-.269-2.1-1.955-3.933-1.774-6.042.17-2.021,2.043-3.785,1.648-5.773a4.68,4.68,0,0,0-1.1-1.961,6.349,6.349,0,0,0-2.241-1.9,23.077,23.077,0,0,1-2.345-.807c-2.076-1.137-2.071-4.1-3.3-6.124a5.377,5.377,0,0,0-5.009-2.494c-1.544.154-2.944.972-4.471,1.247a11.591,11.591,0,0,1-6.2-1.1,16.946,16.946,0,0,0-6.113-1.648c-2.126,0-4.427,1.1-5.075,3.109-.341,1.1-.17,2.274-.434,3.378-.461,1.961-2.2,3.356-3.944,4.328-1.2.67-2.647,1.439-2.79,2.807a5.787,5.787,0,0,0,.687,2.488,6.333,6.333,0,0,1-.033,4.394c-.4,1.038-1.071,1.95-1.478,2.983a5.356,5.356,0,0,0,.143,4.394,4.1,4.1,0,0,0,2.51,2.06C909.874,322.219,910.555,321.148,911.709,321.4Z" transform="translate(-422.85 -153.611)"/><g class="o" transform="translate(482.884 151.431)"><path d="M915.53,336.946c-.286,1.346-1.236,2.873-2.6,2.708-.423-.055-.807-.269-1.225-.363-1.148-.253-1.829.824-2.911.549a4.109,4.109,0,0,1-2.516-2.06,4.756,4.756,0,0,1-.511-1.8,5.015,5.015,0,0,0,.511,2.829,4.109,4.109,0,0,0,2.516,2.06c1.1.253,1.763-.824,2.911-.549a12.424,12.424,0,0,0,1.225.357c1.368.17,2.318-1.357,2.6-2.7a15.875,15.875,0,0,0,.264-3.609A13.535,13.535,0,0,1,915.53,336.946Z" transform="translate(-905.733 -324.13)"/><path d="M909,320.4a6.322,6.322,0,0,0-.362-2.653,14.035,14.035,0,0,1-.632-1.736,2.527,2.527,0,0,0-.055.28,5.886,5.886,0,0,0,.687,2.488A6.3,6.3,0,0,1,909,320.4Z" transform="translate(-906.727 -315.855)"/><path d="M984.9,318.73c-.258,1.56-1.521,3.027-1.648,4.669a3.935,3.935,0,0,0,0,.846C983.526,322.328,985.223,320.63,984.9,318.73Z" transform="translate(-940.662 -317.081)"/><path d="M980.42,339.83a1.291,1.291,0,0,1-.313.615c-.406.434-1.1.467-1.648.681-1.335.511-2.2,2.126-3.647,2.109a1.84,1.84,0,0,1-1.648-1.274,2.847,2.847,0,0,0-.077.363,1.824,1.824,0,0,0,1.719,1.939c1.434,0,2.313-1.6,3.647-2.1.549-.214,1.219-.247,1.648-.681a1.818,1.818,0,0,0,.341-1.489C980.436,339.923,980.425,339.879,980.42,339.83Z" transform="translate(-936.089 -326.591)"/><path d="M971.765,335.719c-.137-1-1.346-1.406-1.983-2.2a3.01,3.01,0,0,1-.6-1.8,4.055,4.055,0,0,0,.6,2.834c.632.769,1.593,1.1,1.9,1.89A1.763,1.763,0,0,0,971.765,335.719Z" transform="translate(-934.322 -322.936)"/><path d="M948.786,322.76c.044-1.236-.253-2.746-1.412-3.169-.341-.126-.72-.143-1.055-.28-.912-.384-1.2-1.516-1.8-2.3-1.225-1.565-3.647-1.538-5.493-.791-.824.335-1.609.78-2.466,1.033a3.23,3.23,0,0,1-2.587-.192c-.363-.231-.659-.549-1.027-.78-1.247-.747-2.873,0-3.944.961s-1.939,2.247-3.3,2.84c-.615.275-1.362.439-1.681,1.033a2.158,2.158,0,0,0-.17,1.027q0,.321,0,.643a1.562,1.562,0,0,1,.159-.637c.319-.593,1.066-.758,1.681-1.033,1.329-.593,2.2-1.857,3.3-2.84s2.7-1.708,3.944-.961c.368.22.665.549,1.027.774a3.208,3.208,0,0,0,2.587.192,25.383,25.383,0,0,0,2.466-1.027c1.84-.747,4.262-.78,5.493.785.6.78.89,1.911,1.8,2.3.335.143.714.159,1.055.286a2.636,2.636,0,0,1,1.4,2.45Z" transform="translate(-913.898 -315.727)"/></g><g class="o" transform="translate(490.719 159.898)"><path d="M920,335.459a4.213,4.213,0,0,1,3.175-3.938,13.182,13.182,0,0,1,7.4.335c5.213,1.725-.659,7.932-.659,7.932s-3.905,3.845-7.547,1.159a5.707,5.707,0,0,1-2.126-3.3A8.406,8.406,0,0,1,920,335.459Z" transform="translate(-919.997 -331.144)"/><path d="M961.719,335.46a4.213,4.213,0,0,0-3.18-3.938,13.183,13.183,0,0,0-7.4.335c-5.213,1.725.659,7.932.659,7.932s3.9,3.845,7.547,1.159a5.707,5.707,0,0,0,2.126-3.3,8.408,8.408,0,0,0,.247-2.192Z" transform="translate(-933.061 -331.144)"/><path d="M910.5,291.439v.258h9.519v-.308Z" transform="translate(-900.903 -291.233)"/><path d="M942.784,335.289h.3v-.873a2.5,2.5,0,0,1,2.571,0v.78h.549v-.511h-.269s.11-1.06-1.681-.89c0,0-1.439-.137-1.406.774h-.33Z" transform="translate(-930.149 -332.33)"/></g><path class="i" d="M920,334.811a4.213,4.213,0,0,1,3.175-3.938,13.254,13.254,0,0,1,7.4.335c5.213,1.73-.659,7.932-.659,7.932s-3.905,3.845-7.547,1.159a5.674,5.674,0,0,1-2.126-3.3,8.351,8.351,0,0,1-.247-2.192Z" transform="translate(-429.278 -170.954)"/><path class="i" d="M961.719,334.811a4.213,4.213,0,0,0-3.18-3.938,13.232,13.232,0,0,0-7.4.335c-5.213,1.73.659,7.932.659,7.932s3.9,3.845,7.547,1.159a5.674,5.674,0,0,0,2.126-3.3A8.354,8.354,0,0,0,961.719,334.811Z" transform="translate(-442.342 -170.954)"/><path class="i" d="M910.5,290.809v.264h9.519v-.313Z" transform="translate(-410.183 -131.05)"/><path class="i" d="M942.784,334.66h.3v-.873a2.516,2.516,0,0,1,2.571,0v.785h.549v-.516h-.269s.11-1.055-1.681-.89c0,0-1.439-.132-1.406.774h-.33Z" transform="translate(-439.429 -172.149)"/><rect class="p" width="3.12" height="70.253" transform="translate(64.717 251.126)"/><path class="l" d="M151.061,620.85l-.2,3.164-.275,4.466-.115,1.862-.275,4.471-.121,1.862-.275,4.466-3.147,50.792a8.6,8.6,0,0,1-8.585,8.074H121.713a8.6,8.6,0,0,1-8.58-8.074l-3.164-50.792-.275-4.466-.115-1.862-.269-4.482-.115-1.862L108.921,624l-.2-3.164a4.455,4.455,0,0,1,4.449-4.729h33.446a4.449,4.449,0,0,1,4.444,4.74Z" transform="translate(-63.616 -299.685)"/><path class="q" d="M124.058,590.46l-.275,4.466h-41.4l-.275-4.466Z" transform="translate(-36.81 -266.131)"/><path class="q" d="M123.988,601.98l-.275,4.471H83.1l-.28-4.471Z" transform="translate(-37.13 -271.324)"/><path class="q" d="M123.918,613.51l-.275,4.466H83.82l-.28-4.466Z" transform="translate(-37.455 -276.52)"/><path class="i" d="M67.507,533.767c18.17,13.144,25.739,33.709,25.739,33.709s-21.9-.753-40.1-13.9S27.41,519.87,27.41,519.87,49.332,520.622,67.507,533.767Z" transform="translate(-26.97 -256.308)"/><path class="r" d="M27.46,519.87S50.189,532.5,57.478,542.94s35.791,24.542,35.791,24.542" transform="translate(-26.993 -256.308)"/><path class="i" d="M103.866,490.794c9.887,7.141,14.012,18.346,14.012,18.346s-11.919-.406-21.812-7.564S82.06,483.23,82.06,483.23,93.979,483.609,103.866,490.794Z" transform="translate(-51.602 -239.794)"/><path class="r" d="M82.06,483.18s12.37,6.866,16.336,12.551,19.483,13.358,19.483,13.358" transform="translate(-51.602 -239.771)"/><path class="i" d="M162.145,515.848c-11.365,12.485-13.765,28.8-13.765,28.8s16.017-3.927,27.376-16.412,13.765-28.8,13.765-28.8S173.5,503.357,162.145,515.848Z" transform="translate(-81.494 -247.095)"/><path class="r" d="M189.521,499.43s-14.8,12.8-18.56,21.62-22.581,23.619-22.581,23.619" transform="translate(-81.494 -247.095)"/></g></svg>